<svg id="logo_2" data-name="logo 2" xmlns="http://www.w3.org/2000/svg" viewBox="0 0 270.548 57.075">
  <defs>
    <style>
      .cls-1 {
        fill: #fff;
      }

      .cls-2 {
        fill: #009688;
      }
    </style>
  </defs>
  <rect id="Rectangle_160" class="cls-1" width="110.443" height="57.075"/>
  <g id="Group_398" data-name="Group 398" transform="translate(5.884 10.887)">
    <path id="Path_247" data-name="Path 247" class="cls-2" d="M23.355,38.5c7.227,0,10.887,4.077,10.887,12.323v11.86h-1.9V50.823c0-7.134-2.826-10.377-8.987-10.377A8.709,8.709,0,0,0,14.6,49.155V62.683H12.7V39.195h1.9v3.8A9.751,9.751,0,0,1,23.355,38.5Z" transform="translate(-12.7 -31.551)"/>
    <path id="Path_248" data-name="Path 248" class="cls-2" d="M85.4,38.4c7,0,11.35,4.725,11.35,12.323,0,7.551-4.355,12.369-11.35,12.369S74.1,58.274,74.1,50.723C74.1,43.125,78.408,38.4,85.4,38.4Zm0,22.746c5.93,0,9.451-3.938,9.451-10.424,0-6.532-3.521-10.424-9.451-10.424S76,44.191,76,50.723,79.428,61.146,85.4,61.146Z" transform="translate(-45.655 -31.497)"/>
    <path id="Path_249" data-name="Path 249" class="cls-2" d="M140.885,55c-3.2-.324-5.05-3.058-5.05-7.366V33H132.5V31.144h3.336V23.5h1.9v7.644h8.617V33h-8.617V47.636c0,1.158.278,5.142,3.336,5.467a8.235,8.235,0,0,0,4.725-1.112l.834,1.714A10.992,10.992,0,0,1,140.885,55Z" transform="translate(-77.001 -23.5)"/>
    <path id="Path_250" data-name="Path 250" class="cls-2" d="M193.805,58.289a13.846,13.846,0,0,1-10.424,4.864c-6.856,0-11.443-4.633-11.582-11.86V50.46c.139-7.32,4.494-11.86,11.257-11.86,6.856,0,11.3,4.355,11.3,13.249H173.7c.51,5.559,4.216,9.5,9.682,9.5a11.163,11.163,0,0,0,8.246-3.336Zm-1.39-8.385c-.51-5.652-3.891-9.451-9.358-9.451-5.42,0-8.848,3.8-9.358,9.451Z" transform="translate(-98.094 -31.605)"/>
  </g>
  <g id="Group_399" data-name="Group 399" transform="translate(112.806 8.57)">
    <path id="Path_251" data-name="Path 251" class="cls-1" d="M252.626,20.446c-3.382,0-3.984,2.733-3.984,5.1v2.27h6.671v1.9h-6.671V51.994h-1.9V29.665H243.5v-1.9h3.243V25.5c0-4.494,2.131-7,5.883-7a7.683,7.683,0,0,1,2.826.695l-.649,1.76A7.891,7.891,0,0,0,252.626,20.446Z" transform="translate(-243.5 -18.5)"/>
    <path id="Path_252" data-name="Path 252" class="cls-1" d="M280.6,24.528h-1.9V21.1h1.9Zm0,28.815h-1.9V29.207h1.9Z" transform="translate(-262.393 -19.896)"/>
    <path id="Path_253" data-name="Path 253" class="cls-1" d="M315.17,39.4h2.363l-8.895,11.165c3.1,3.984,6.81,8.617,9.914,12.647h-2.363l-8.709-11.165c-2.872,3.752-5.791,7.5-8.617,11.165H296.5l9.868-12.647c-2.733-3.475-6.254-7.644-8.895-11.165h2.363l7.737,9.636Z" transform="translate(-271.947 -29.718)"/>
    <path id="Path_254" data-name="Path 254" class="cls-1" d="M375.33,62.35h-1.9V56.7a11.615,11.615,0,0,1-10.1,6.069c-4.864,0-10.377-2.594-9.451-8.57.741-4.679,4.54-7.366,10.238-7.366a57.092,57.092,0,0,1,9.265.927c0-5.1-2.316-7.459-7.459-7.876a18.887,18.887,0,0,0-9.219,1.575l-.695-1.714a18.827,18.827,0,0,1,10.1-1.76c5.7.6,8.848,3.475,9.173,8.987V62.35Zm-12-1.482c5.837,0,8.987-5.235,10.1-8.617v-2.5a55.123,55.123,0,0,0-9.312-.973c-4.494,0-7.644,2.27-8.339,5.791C355.178,58.922,359.394,60.868,363.332,60.868Z" transform="translate(-302.69 -28.902)"/>
    <path id="Path_255" data-name="Path 255" class="cls-1" d="M419.785,55c-3.2-.324-5.05-3.058-5.05-7.366V33H411.4V31.144h3.335V23.5h1.9v7.644h8.617V33h-8.617V47.636c0,1.158.278,5.142,3.336,5.467a8.235,8.235,0,0,0,4.725-1.112l.834,1.714A11.221,11.221,0,0,1,419.785,55Z" transform="translate(-333.617 -21.184)"/>
    <path id="Path_256" data-name="Path 256" class="cls-1" d="M455.4,24.528h-1.9V21.1h1.9Zm0,28.815h-1.9V29.207h1.9Z" transform="translate(-356.214 -19.896)"/>
    <path id="Path_257" data-name="Path 257" class="cls-1" d="M483.9,38.4c7,0,11.35,4.725,11.35,12.323,0,7.551-4.355,12.369-11.35,12.369s-11.3-4.818-11.3-12.369C472.6,43.125,476.908,38.4,483.9,38.4Zm0,22.746c5.93,0,9.451-3.938,9.451-10.424,0-6.532-3.521-10.424-9.451-10.424s-9.4,3.891-9.4,10.424S477.974,61.146,483.9,61.146Z" transform="translate(-366.465 -29.181)"/>
    <path id="Path_258" data-name="Path 258" class="cls-1" d="M548.155,38.5c7.227,0,10.887,4.077,10.887,12.323v11.86h-1.9V50.823c0-7.134-2.826-10.377-8.987-10.377a8.709,8.709,0,0,0-8.756,8.709V62.683h-1.9V39.195h1.9v3.8C541.206,40.075,544.171,38.5,548.155,38.5Z" transform="translate(-401.299 -29.235)"/>
  </g>
</svg>
